<?xml version="1.0" encoding="UTF-8" standalone="no"?><!DOCTYPE svg PUBLIC "-//W3C//DTD SVG 1.1//EN" "http://www.w3.org/Graphics/SVG/1.1/DTD/svg11.dtd"><svg width="100%" height="100%" viewBox="0 0 3434 3434" version="1.1" xmlns="http://www.w3.org/2000/svg" xmlns:xlink="http://www.w3.org/1999/xlink" xml:space="preserve" xmlns:serif="http://www.serif.com/" style="fill-rule:evenodd;clip-rule:evenodd;stroke-linejoin:round;stroke-miterlimit:2;"><path d="M3384.59,559.015c0,0 -188.098,-38.241 -486.326,-53.7c-202.967,-10.521 -456.458,-5.684 -733.488,13.493c-379.868,26.296 -804.035,88.418 -1205.43,209.433c-347.183,105.617 -598.353,211.692 -741.999,304.018c-90.413,58.112 -139.939,113.981 -151.712,159.456c-16.636,64.262 27.986,126.637 160.802,156.871c43.748,9.959 97.708,18.15 162.338,21.594c151.919,8.096 363.038,-5.935 637.376,-41.685c6.529,-0.639 11.31,-6.457 10.671,-12.986c-0.638,-6.528 -6.457,-11.31 -12.985,-10.671c-383.537,27.081 -640.045,14.764 -782.143,-21.185c-77.432,-19.589 -119.23,-36.513 -108.94,-74.053c9.562,-34.885 53.173,-72.349 123.336,-116.243c141.057,-88.245 386.92,-188.708 726.219,-288.265c312.864,-92.593 639.706,-147.138 947.577,-179.564c323.154,-34.036 625.617,-37.696 869.84,-41.741c351.183,-5.815 582.341,-1.136 582.341,-1.136c6.523,0.696 12.383,-4.035 13.078,-10.557c0.696,-6.523 -4.035,-12.383 -10.557,-13.079Z"/><path d="M1428.52,856.491c0,0 22.499,8.523 55.87,29.229c32.086,19.908 68.474,53.126 112.545,91.621c20.288,17.72 41.851,36.087 63.302,56.616c118.69,113.594 220.101,296.393 114.584,598.041c-57.437,164.197 -172.713,360.593 -372.088,597.069c-91.025,107.965 -202.608,220.666 -326.628,349.668c-65.886,68.533 -131.983,143.233 -206.846,219.437c-1.009,0.869 -1.123,2.394 -0.254,3.403c0.869,1.008 2.394,1.122 3.403,0.253c86.829,-63.027 168.519,-121.242 241.38,-182.952c138.439,-117.252 248.947,-234.92 344.449,-341.578c215.353,-240.509 338.753,-444.752 400.352,-615.543c125.881,-349.023 6.212,-570.423 -139.947,-692.982c-25.726,-21.571 -52.103,-40.417 -79.243,-54.241c-55.516,-28.277 -107.656,-38.915 -146.683,-48.571c-38.979,-9.644 -62.903,-14.119 -62.903,-14.119c-1.283,-0.356 -2.614,0.396 -2.971,1.678c-0.356,1.283 0.396,2.614 1.678,2.971Z"/><path d="M1864.58,831.573c0,0 617.252,63.139 986.208,203.238c94.501,35.883 172.39,76.628 217.888,123.025c38.519,39.281 51.309,82.776 23.708,131.001c-59.315,103.826 -212.139,189.978 -397.704,264.07c-416.081,166.132 -996.723,265.015 -1127.3,315.752c-80.201,31.981 -237.813,93.085 -329.322,179.142c-47.923,45.066 -78.299,97.256 -80.462,153.966c-1.386,36.339 8.45,75.162 34.748,115.897c33.238,51.483 94.546,108.99 197.469,167.357c82.796,46.952 193.676,94.627 337.65,144.766c328.31,112.3 557.179,179.829 721.434,221.992c338.342,86.849 402.334,62.388 495.401,82.565c3.544,0.844 7.107,-1.348 7.951,-4.892c0.844,-3.544 -1.348,-7.107 -4.893,-7.951c-91.743,-23.818 -156.95,-0.137 -489.374,-102.004c-161.296,-49.427 -384.917,-129.185 -705.314,-257.617c-136.471,-53.831 -240.401,-105.294 -319.099,-152.152c-85.67,-51.009 -139.722,-96.083 -167.693,-139.491c-14.844,-23.037 -21.627,-44.595 -20.844,-65.134c1.341,-35.134 23.443,-65.641 53.056,-93.643c83.431,-78.891 228.038,-133.817 301.186,-163.452c129.134,-53.648 706.47,-165.344 1117.72,-341.083c196.329,-83.897 355.002,-183.284 415.613,-295.762c36.771,-68.367 20.48,-129.249 -34.733,-182.718c-49.794,-48.221 -133.436,-90.44 -235.104,-126.354c-374.649,-132.341 -996.984,-183.664 -996.984,-183.664c-3.628,-0.335 -6.845,2.338 -7.18,5.966c-0.335,3.628 2.339,6.845 5.967,7.18Z"/></svg>